<svg version="1.1" id="Layer_1" xmlns="http://www.w3.org/2000/svg" x="0" y="0" viewBox="0 0 975 975" xml:space="preserve"><style>.st1{fill:#107c41}.st5{opacity:.2;enable-background:new}</style><g id="STYLE_COLOR"><path d="M609.4 60.9h-325c-22.4 0-40.6 18.2-40.6 40.6v172.7l365.6 213.3 182.8 77.1L975 487.5V274.2L609.4 60.9z" fill="#21a366"/><path class="st1" d="M243.7 274.2h365.6v213.3H243.7z"/><path d="M934.4 60.9h-325v213.3H975V101.6c0-22.5-18.2-40.7-40.6-40.7z" fill="#33c481"/><path d="M609.4 487.5H243.7v385.9c0 22.4 18.2 40.6 40.6 40.6h650c22.4 0 40.6-18.2 40.6-40.6V700.8L609.4 487.5z" fill="#185c37"/><path class="st1" d="M609.4 487.5H975v213.3H609.4z"/><path d="M507.8 213.3h-264v578.9h264.1c22.4-.1 40.6-18.2 40.6-40.6V253.9c-.1-22.4-18.3-40.6-40.7-40.6z" opacity=".1"/><path class="st5" d="M477.3 243.8H243.8v578.9h233.6c22.4-.1 40.6-18.2 40.6-40.6V284.4c-.1-22.4-18.2-40.6-40.7-40.6z"/><path class="st5" d="M477.3 243.8H243.8v518h233.6c22.4-.1 40.6-18.2 40.6-40.6V284.4c-.1-22.4-18.2-40.6-40.7-40.6z"/><path class="st5" d="M446.9 243.8H243.8v518h203.1c22.4-.1 40.6-18.2 40.6-40.6V284.4c-.1-22.4-18.2-40.6-40.6-40.6z"/><path id="Back_Plate" class="st1" d="M40.6 243.8h406.3c22.4 0 40.6 18.2 40.6 40.6v406.2c0 22.4-18.2 40.6-40.6 40.6H40.6C18.2 731.3 0 713.1 0 690.6V284.4c0-22.5 18.2-40.6 40.6-40.6z"/><path d="M107.7 639.8L206.3 487 116 335.1h72.7l49.3 97.1c4.5 9.2 7.6 16.1 9.3 20.6h.6c3.3-7.4 6.7-14.5 10.2-21.5l52.7-96.3h66.7l-92.6 151.1 95 153.6h-71L252 533c-2.7-4.5-5-9.3-6.8-14.2h-.8c-1.7 4.8-3.9 9.5-6.6 13.8l-58.6 107.1h-71.5z" fill="#fff"/><path fill="none" d="M0 0h975v975H0z"/></g></svg>